<?xml version="1.0" encoding="UTF-8" standalone="no"?>
<svg
   xmlns:dc="http://purl.org/dc/elements/1.1/"
   xmlns:cc="http://creativecommons.org/ns#"
   xmlns:rdf="http://www.w3.org/1999/02/22-rdf-syntax-ns#"
   xmlns:svg="http://www.w3.org/2000/svg"
   xmlns="http://www.w3.org/2000/svg"
   id="svg8"
   version="1.1"
   viewBox="0 0 67.733332 67.733335"
   height="256"
   width="256">
  <defs
     id="defs2" />
  <metadata
     id="metadata5">
    <rdf:RDF>
      <cc:Work
         rdf:about="">
        <dc:format>image/svg+xml</dc:format>
        <dc:type
           rdf:resource="http://purl.org/dc/dcmitype/StillImage" />
        <dc:title></dc:title>
      </cc:Work>
    </rdf:RDF>
  </metadata>
  <g
     transform="translate(0,-229.26663)"
     id="layer1">
    <path
       id="path4504"
       d="m 7.9375,275.83329 5.027083,-19.31458 6.614584,-23.01875 7.14375,21.16667 7.14375,1.32291 7.14375,-1.32291 7.14375,-21.16667 6.614584,23.01875 5.027083,19.31458 -25.929167,14.55209 z"
       style="fill:#ff0000;fill-opacity:1;stroke:none;stroke-width:0.26458332px;stroke-linecap:butt;stroke-linejoin:miter;stroke-opacity:1" />
  </g>
  <g
     id="layer3">
    <path
       transform="scale(0.26458333)"
       id="path4541"
       d="M 74 16 L 49 103 L 45.738281 115.5293 L 100.9082 95.724609 L 74 16 z M 182 16 L 155.0918 95.724609 L 210.26172 115.5293 L 207 103 L 182 16 z "
       style="fill:#000000;fill-opacity:1;stroke:#000000;stroke-width:0.50000001;stroke-linecap:butt;stroke-linejoin:miter;stroke-opacity:1;stroke-miterlimit:4;stroke-dasharray:none" />
  </g>
  <g
     id="layer2">
    <path
       id="path4528"
       d="M 9.2604167,46.566667 33.866667,42.8625 58.472917,46.566658 33.866667,60.325 Z"
       style="fill:#ffffff;fill-opacity:1;stroke:none;stroke-width:0.26458332px;stroke-linecap:butt;stroke-linejoin:miter;stroke-opacity:1" />
    <path
       id="path4534"
       transform="scale(0.26458333)"
       d="M 128 162 L 114.92188 163.96875 L 128 171 L 141.07812 163.96875 L 128 162 z "
       style="fill:#000000;fill-opacity:1;stroke:none;stroke-width:0.99999994px;stroke-linecap:butt;stroke-linejoin:miter;stroke-opacity:1" />
  </g>
</svg>
